<svg xmlns="http://www.w3.org/2000/svg" viewBox="0 0 62.83 67.66"><defs><style>.cls-1{fill:#585964;}</style></defs><title>Element 2</title><g id="Ebene_2" data-name="Ebene 2"><g id="_4c" data-name="4c"><path class="cls-1" d="M62.82,32.8a8.14,8.14,0,0,0-.73-3.8,8,8,0,0,0-1.19-1.61c-.33-.35-.52-.38-.52-.81,0-1.31,0-2.63,0-3.95,0-5.56-5.82-10.33-10.93-11.3a17.05,17.05,0,0,0-2.26-.26L46.1,11c-.12-.31-.25-.61-.4-.9a18.17,18.17,0,0,0-3-4,18.91,18.91,0,0,0-7.66-5.07C31.88,0,28.53,0,25.19,0a26.92,26.92,0,0,0-9.53,1.2C9.86,3.31,4.28,9,4.28,15.36V25.44c-1.32-.17-2.45,1-3.16,2C.1,28.77.06,30.32,0,32a18.73,18.73,0,0,0,.25,4.26,7.12,7.12,0,0,0,2.52,3.53c.54.5,1.11,1,1.68,1.45.33.27,1.27.74,1.43,1.11a6.1,6.1,0,0,1-.08,1.81c0,.94,0,1.87.06,2.81a13.77,13.77,0,0,0,.77,4.43,18.13,18.13,0,0,0,2.79,4.1,58.43,58.43,0,0,0,6.88,7.05q1.79,1.56,3.69,3a8.53,8.53,0,0,0,4.16,2.06,9.75,9.75,0,0,0,4.27-.31,13.66,13.66,0,0,0,3.84-2.6A62.74,62.74,0,0,0,39.51,58q.92-1,1.79-2a8.52,8.52,0,0,0,7.61-.44,37.11,37.11,0,0,0,7.9-7.33,10.83,10.83,0,0,0,2.1-3.42,15.53,15.53,0,0,0,.59-4.47,8.88,8.88,0,0,0,2.9-3.65,8.58,8.58,0,0,0,.4-2.3c0-.51,0-1,0-1.54-.08-.06-.46,0-.57,0ZM59.3,34.67a4.12,4.12,0,0,1-1.62,2.65c-.45.4-.92.78-1.39,1.14s-.27.52-.25,1a15,15,0,0,1-.27,3.64,8,8,0,0,1-2,3.28,35.06,35.06,0,0,1-5.44,5.21,5.84,5.84,0,0,1-3,1.55,4.71,4.71,0,0,1-3.56-1,37,37,0,0,1-5.52-5,13.81,13.81,0,0,1-2.25-3,9.08,9.08,0,0,1-.64-3.8,15.4,15.4,0,0,1,0-1.7c0-.17-.81-.67-.94-.78-1-.83-2.16-1.74-2.35-3.1a12.77,12.77,0,0,1,0-3.62c.14-.93,1.25-2.34,2.32-2.21,0-2.12-.12-4.27,0-6.38,0-2.44,2.11-4.69,3.94-6.09,2.42-1.84,5.32-2.16,8.28-2.11s5.56.19,8,1.87c2,1.38,4.26,3.77,4.26,6.32.12,2.12,0,4.27,0,6.38.94-.11,2.06,1.09,2.27,1.93a11.44,11.44,0,0,1,.11,3.72C59.27,35,59.37,34.09,59.3,34.67Z"/></g></g></svg>