<?xml version="1.0" encoding="UTF-8"?>
<svg id="Ebene_2" data-name="Ebene 2" xmlns="http://www.w3.org/2000/svg" viewBox="0 0 171.5 171.3">
  <defs>
    <style>
      .cls-1 {
        fill: #333;
      }
    </style>
  </defs>
  <g id="Objects">
    <path class="cls-1" d="m145.4,24.1C128.8,8,107.2,0,85.8,0h0c-22.4,0-44.8,8.7-61.6,26-33,34-32.1,88.2,1.9,121.1,16.6,16.1,38.2,24.1,59.6,24.1h0s0,0,0,0c22.4,0,44.8-8.7,61.6-26,33-34,32.1-88.2-1.9-121.1Zm-56.8,30.2c11.9,0,22.2-.6,30.9-1.4,2,9.3,3.1,19.4,3.3,29.8h-34.2v-28.5Zm0-5.7V6c3.2.6,6.3,2.1,9.4,4.5,4.6,3.6,8.8,9.1,12.5,16.3,3.1,6.1,5.7,13,7.7,20.6-8.4.7-18.2,1.2-29.5,1.3Zm-5.7-42.6v42.6c-11.4,0-21.2-.6-29.5-1.3,1.8-6.8,4.1-13.1,6.8-18.8,6.3-13,14.4-21,22.7-22.6Zm0,48.3v28.5h-34.2c.2-10.4,1.3-20.5,3.3-29.8,8.7.8,18.9,1.3,30.9,1.4Zm-39.9,28.5H5.8c.4-12.8,3.9-25,10-36,4.9,1.5,14.8,3.9,30.6,5.6-2,9.7-3.2,20-3.3,30.4Zm0,5.7c.2,10.4,1.3,20.7,3.3,30.4-15.8,1.7-25.7,4.1-30.6,5.6-6.1-10.9-9.5-23.2-10-36h37.2Zm5.7,0h34.2v28.5c-11.9,0-22.2.6-30.9,1.4-2-9.3-3.1-19.4-3.3-29.8Zm34.2,34.2v42.6c-3.2-.6-6.3-2.1-9.4-4.5-4.6-3.6-8.8-9.1-12.5-16.2-3.1-6.1-5.7-13-7.7-20.6,8.4-.7,18.2-1.2,29.5-1.3Zm5.7,42.6v-42.6c11.4,0,21.2.6,29.5,1.3-1.8,6.8-4.1,13.1-6.8,18.8-6.3,13-14.4,21-22.7,22.6Zm0-48.3v-28.5h34.2c-.2,10.4-1.3,20.5-3.3,29.8-8.7-.8-18.9-1.3-30.9-1.4Zm39.9-28.5h37.2c-.4,12.8-3.9,25-10,36-4.9-1.5-14.8-3.9-30.6-5.6,2-9.7,3.2-20,3.3-30.4Zm0-5.7c-.2-10.4-1.3-20.7-3.3-30.4,15.8-1.7,25.7-4.1,30.6-5.6,6.1,10.9,9.5,23.2,10,36h-37.2Zm13-54.5c4.3,4.1,8,8.7,11.2,13.5-5.1,1.4-14.5,3.5-28.8,5-2.1-8.2-4.9-15.9-8.3-22.6-3.6-7-7.7-12.5-12-16.5,14.2,3.2,27.3,10.2,38,20.6Zm-113.2,1.8c7.7-7.9,16.7-14,26.8-18.2,4.2-1.7,8.5-3.1,13-4.1-4.7,4.3-9.2,10.4-13,18.4-3,6.3-5.5,13.3-7.4,20.7-14.3-1.5-23.7-3.6-28.8-5,2.7-4.1,5.9-8.1,9.4-11.7Zm1.8,113c-4.3-4.1-8-8.7-11.2-13.5,5.1-1.4,14.5-3.5,28.8-5,2.1,8.2,4.9,15.9,8.4,22.6,3.6,7,7.7,12.5,12,16.5-14.2-3.2-27.3-10.2-38-20.6Zm113.2-1.8c-7.7,7.9-16.7,14-26.8,18.2-4.2,1.7-8.5,3.1-13,4.1,4.7-4.3,9.2-10.4,13-18.4,3-6.3,5.5-13.3,7.4-20.7,14.3,1.5,23.7,3.6,28.8,5-2.7,4.1-5.9,8.1-9.4,11.7Z"/>
  </g>
</svg>